<svg width="24" height="29" viewBox="0 0 24 29" fill="none" xmlns="http://www.w3.org/2000/svg">
<ellipse opacity="0.09" cx="12" cy="27" rx="4" ry="2" fill="black"/>
<path d="M12 27.1204L20 16H4L12 27.1204Z" fill="#308508"/>
<path d="M5.95128 17H18.0487L12 25.408L5.95128 17Z" stroke="#308508" stroke-opacity="0.3" stroke-width="2"/>
<circle cx="12" cy="12" r="12" fill="url(#paint0_linear)"/>
<path d="M9.77333 13.0467C9.87333 13.0467 9.96667 13.04 10.06 13.0267C10.3733 13.7933 11.1267 14.3333 12 14.3333C12.8733 14.3333 13.6267 13.7933 13.94 13.0267C14.0333 13.04 14.1333 13.0467 14.2267 13.0467C15.38 13.0467 16.32 12.1067 16.32 10.9533C16.32 10.48 16.1533 10.0267 15.8733 9.66667C16.16 9.30667 16.32 8.85333 16.32 8.38C16.32 7.22667 15.38 6.28667 14.2267 6.28667C14.1267 6.28667 14.0333 6.29333 13.94 6.30667C13.6267 5.54 12.8733 5 12 5C11.1267 5 10.3733 5.54 10.06 6.30667C9.96667 6.29333 9.86667 6.28667 9.77333 6.28667C8.62 6.28667 7.68 7.22667 7.68 8.38C7.68 8.85333 7.84667 9.30667 8.12667 9.66667C7.84 10.0267 7.67333 10.48 7.67333 10.9533C7.67333 12.1067 8.61333 13.0467 9.77333 13.0467ZM12 13C11.5867 13 11.2533 12.6733 11.24 12.2667L11.32 11.54C11.5333 11.62 11.76 11.6667 12 11.6667C12.24 11.6667 12.4733 11.62 12.6867 11.54L12.76 12.2667C12.7467 12.6733 12.4133 13 12 13ZM14.2267 11.7133C14.0667 11.7133 13.92 11.6667 13.8 11.58L13.26 11.2C13.6267 10.9 13.8867 10.4733 13.9667 9.98L14.5533 10.26C14.82 10.3867 14.9933 10.6533 14.9933 10.9467C14.9933 11.3733 14.6467 11.7133 14.2267 11.7133ZM13.7933 7.75333C13.9267 7.66667 14.0733 7.62 14.2267 7.62C14.6467 7.62 14.9867 7.96 14.9867 8.38C14.9867 8.67333 14.82 8.93333 14.5467 9.06667L13.96 9.34667C13.88 8.85333 13.62 8.42667 13.2467 8.12667L13.7933 7.75333ZM12 6.33333C12.4133 6.33333 12.7467 6.66 12.76 7.06667L12.6867 7.79333C12.4733 7.71333 12.24 7.66667 12 7.66667C11.76 7.66667 11.5333 7.71333 11.32 7.79333L11.24 7.06667C11.2533 6.66 11.5867 6.33333 12 6.33333ZM9.77333 7.62C9.93333 7.62 10.08 7.66667 10.2 7.75333L10.74 8.12667C10.3733 8.42667 10.1133 8.85333 10.0333 9.34667L9.44667 9.06667C9.18 8.93333 9.00667 8.67333 9.00667 8.38C9.00667 7.96 9.35333 7.62 9.77333 7.62ZM9.44667 10.2667L10.0333 9.98667C10.1133 10.48 10.3733 10.9067 10.7467 11.2067L10.2067 11.5733C10.0733 11.66 9.92667 11.7067 9.77333 11.7067C9.35333 11.7067 9.01333 11.3667 9.01333 10.9467C9.00667 10.66 9.18 10.4 9.44667 10.2667ZM12 19C15.3133 19 18 16.3133 18 13C14.6867 13 12 15.6867 12 19ZM13.6267 17.3733C14.1 16.1067 15.1067 15.0933 16.3733 14.6267C15.9 15.8933 14.8933 16.9 13.6267 17.3733ZM6 13C6 16.3133 8.68667 19 12 19C12 15.6867 9.31333 13 6 13ZM7.62667 14.6267C8.89333 15.1 9.90667 16.1067 10.3733 17.3733C9.10667 16.9 8.1 15.8933 7.62667 14.6267Z" fill="white"/>
<defs>
<linearGradient id="paint0_linear" x1="5" y1="2" x2="12.5" y2="23.5" gradientUnits="userSpaceOnUse">
<stop offset="0.00415962" stop-color="#78D54D"/>
<stop offset="1" stop-color="#308508"/>
</linearGradient>
</defs>
</svg>
